<?xml version="1.0" standalone="no"?>
<!DOCTYPE svg PUBLIC "-//W3C//DTD SVG 20010904//EN"
 "http://www.w3.org/TR/2001/REC-SVG-20010904/DTD/svg10.dtd">
<svg version="1.0" xmlns="http://www.w3.org/2000/svg"
 width="1491.000000pt" height="1491.000000pt" viewBox="0 0 1491.000000 1491.000000"
 preserveAspectRatio="xMidYMid meet">
<metadata>
Created by potrace 1.11, written by Peter Selinger 2001-2013
</metadata>
<g transform="translate(0.000000,1491.000000) scale(0.100000,-0.100000)"
fill="#000000" stroke="none">
<path d="M6950 14410 c-591 -42 -1137 -137 -1685 -295 -2817 -811 -4863 -3104
-5214 -5845 -42 -326 -46 -397 -46 -845 1 -470 8 -579 60 -944 157 -1081 600
-2147 1265 -3041 427 -574 962 -1105 1535 -1522 1130 -823 2415 -1305 3865
-1449 264 -26 900 -37 1182 -20 943 57 1803 261 2669 631 1590 681 2898 1905
3639 3405 367 744 576 1475 667 2330 26 246 26 985 0 1230 -46 429 -116 801
-219 1165 -472 1666 -1553 3086 -3075 4039 -912 571 -1920 937 -3017 1096
-375 54 -558 67 -1046 70 -250 2 -511 -1 -580 -5z m-1285 -2580 c415 -31 771
-120 1085 -271 174 -84 258 -135 408 -246 368 -275 630 -667 771 -1154 32
-108 88 -376 80 -382 -2 -2 -215 -58 -474 -126 -258 -67 -478 -124 -487 -127
-15 -5 -18 1 -18 37 0 68 -29 244 -56 337 -64 222 -175 405 -353 582 -284 282
-648 459 -1081 526 -141 22 -479 25 -620 5 -319 -43 -620 -140 -910 -292 -458
-240 -710 -537 -820 -969 -18 -72 -20 -100 -15 -194 19 -316 78 -522 198 -682
76 -104 255 -231 456 -327 291 -137 493 -198 1236 -372 605 -141 834 -202
1050 -280 316 -113 588 -241 766 -360 100 -67 285 -238 358 -330 l31 -40 -6
115 c-17 308 142 1025 337 1520 662 1681 2155 2681 4429 2964 204 26 522 57
527 52 4 -4 64 -808 61 -811 -2 -1 -84 -10 -183 -19 -1269 -117 -2265 -457
-2995 -1022 -137 -106 -447 -411 -552 -544 -264 -334 -463 -708 -604 -1135
-44 -134 -114 -395 -139 -522 l-7 -33 2011 0 2011 0 0 -465 0 -465 -2000 0
-2000 0 6 -27 c129 -582 371 -1088 719 -1500 111 -132 335 -350 470 -457 119
-95 372 -266 500 -338 491 -278 1080 -487 1765 -627 204 -41 472 -86 575 -96
106 -10 319 -35 343 -40 l22 -5 0 -410 0 -410 -33 0 c-51 0 -418 47 -637 81
-1505 236 -2667 765 -3440 1565 -352 364 -581 708 -823 1234 l-16 35 0 -39
c-1 -51 -44 -241 -87 -381 -98 -325 -279 -670 -491 -935 -151 -190 -417 -440
-633 -595 -535 -385 -1211 -602 -2040 -656 -226 -14 -690 -7 -882 15 -618 69
-1086 239 -1487 539 -122 91 -336 304 -427 427 -259 347 -424 739 -524 1250
-16 79 -28 146 -26 148 4 4 900 181 935 184 23 3 25 -2 42 -92 82 -454 276
-824 564 -1074 338 -292 797 -464 1358 -507 164 -13 521 -7 692 11 495 53 911
197 1218 422 113 83 309 284 384 394 114 167 191 337 244 538 32 122 35 188
18 331 -63 512 -386 880 -944 1075 -49 17 -441 123 -870 236 -845 222 -1070
285 -1300 365 -335 115 -506 211 -720 403 -328 295 -499 648 -537 1111 -19
233 14 517 96 816 94 342 257 666 467 926 148 183 389 398 619 549 614 405
1546 626 2385 564z"/>
</g>
</svg>
